HIERARCHY
ROOT root
{
OFFSET 0 0 0
CHANNELS 6 Xposition Yposition Zposition Zrotation Yrotation Xrotation
JOINT LeftUpLeg
{
OFFSET 11.3458 0 0
CHANNELS 3 Zrotation Yrotation Xrotation
JOINT LeftLeg
{
OFFSET 0.00037167 -41.5903 -2.53478
CHANNELS 3 Zrotation Yrotation Xrotation
JOINT LeftFoot
{
OFFSET 0.000211091 -44.3828 2.85594
CHANNELS 3 Zrotation Yrotation Xrotation
JOINT LeftToes
{
OFFSET 0 0 16.4975
CHANNELS 3 Zrotation Yrotation Xrotation
End Site
{
OFFSET 0.0799999 -0.047448 9.77978
}
}
}
}
}
JOINT Spine
{
OFFSET 1.82187 23.9065 -8.41027
CHANNELS 3 Zrotation Yrotation Xrotation
JOINT Spine1
{
OFFSET 0 24.995 0.000605945
CHANNELS 3 Zrotation Yrotation Xrotation
JOINT RightShoulder
{
OFFSET -8.98999 1.33453 -0.219958
CHANNELS 3 Zrotation Yrotation Xrotation
JOINT RightArm
{
OFFSET -10.5221 1.15288 0.21561
CHANNELS 3 Zrotation Yrotation Xrotation
JOINT RightForeArm
{
OFFSET -25.1789 -0.412611 -0.112648
CHANNELS 3 Zrotation Yrotation Xrotation
JOINT RightHand
{
OFFSET -23.0777 0.07562 -0.0136592
CHANNELS 3 Zrotation Yrotation Xrotation
End Site
{
OFFSET -13.3284 -0.6 1.50291
}
}
}
}
}
JOINT LeftShoulder1
{
OFFSET 8.98999 1.33453 -0.219959
CHANNELS 3 Zrotation Yrotation Xrotation
JOINT LeftArm
{
OFFSET 10.522 1.15329 0.220044
CHANNELS 3 Zrotation Yrotation Xrotation
JOINT LeftForeArm
{
OFFSET 25.1788 -0.414099 -0.112978
CHANNELS 3 Zrotation Yrotation Xrotation
JOINT LeftHand
{
OFFSET 23.0777 0.0751808 -0.0137337
CHANNELS 3 Zrotation Yrotation Xrotation
End Site
{
OFFSET 13.419 -0.6 1.50292
}
}
}
}
}
JOINT HEad
{
OFFSET -0.0706832 19.3422 -6.30919
CHANNELS 3 Zrotation Yrotation Xrotation
End Site
{
OFFSET -0.29 12.7742 2.51394
}
}
}
}
JOINT RightUpLeg
{
OFFSET -11.3458 0 0
CHANNELS 3 Zrotation Yrotation Xrotation
JOINT RightLeg
{
OFFSET -0.000218165 -41.5901 -2.53712
CHANNELS 3 Zrotation Yrotation Xrotation
JOINT RightFoot
{
OFFSET 0.101694 -44.3826 2.85855
CHANNELS 3 Zrotation Yrotation Xrotation
JOINT RightToes
{
OFFSET 0.0347039 1.3914e-005 16.4975
CHANNELS 3 Zrotation Yrotation Xrotation
End Site
{
OFFSET -0.0799999 -0.137448 9.77979
}
}
}
}
}
}
MOTION
Frames: 12
Frame Time: 0.033333
146.392 84.4078 -1.50633 -175.138 -35.3813 178.936 17.0861 13.3803 -14.6262 -1.91035 -7.61386 17.8152 -2.18826 0.166429 11.8219 1.07983e-007 1.41006e-006 -36.4765 3.17206 -4.33164 3.56187 5.90729 -8.83719 6.9758 -0.0068039 8.23569e-005 0.217195 74.3711 -6.38475 -106.617 86.0736 66.6272 35.3225 6.95833 2.2882 10.0331 -4.95415e-022 -2.42657e-020 0 -59.9 -9.88825 -45.3642 -16.3203 -31.2118 63.7407 -10.9406 -9.08868 10.7748 6.59038 41.0348 35.1434 -1.12715 -5.29037 0.230232 -1.0272 -4.3502 15.3029 -0.0689738 -0.129108 -3.97824 -0.232526 0.487385 -34.8297 
146.409 84.4085 -1.57909 -175.186 -35.1762 179.041 17.1194 13.3727 -14.4582 -1.82925 -7.41253 17.5895 -2.14364 0.168845 11.9275 1.07989e-007 1.41006e-006 -36.6978 3.18688 -4.35365 3.57741 5.93164 -8.88192 7.00627 -0.0068039 8.23569e-005 0.217195 74.3706 -6.51167 -106.404 86.6905 66.6462 35.69 7.03961 2.2216 10.0327 -4.95415e-022 -2.42657e-020 0 -60.0095 -10.0997 -45.2394 -16.3463 -31.2547 63.7952 -11.0142 -8.95875 10.7679 6.36997 41.1477 35.222 -1.08692 -4.8766 -0.00576502 -1.09748 -4.56472 15.6185 -0.0576933 -0.128363 -4.10275 -0.232479 0.487659 -34.8746 
146.405 84.4042 -1.64716 -175.249 -35.1179 179.132 17.1131 13.2595 -14.3686 -1.77145 -7.25246 17.451 -2.10331 0.170776 11.9742 1.07988e-007 1.41006e-006 -36.6997 3.2046 -4.3684 3.60742 5.96555 -8.91397 7.06407 -0.0068039 8.23569e-005 0.217195 74.3407 -6.59313 -106.355 87.3845 66.6638 36.3469 7.15135 2.16105 10.0349 -4.95415e-022 -2.42657e-020 0 -60.1142 -10.4815 -45.1305 -16.3265 -31.2221 63.7655 -10.9373 -8.94703 10.7639 6.14842 41.2005 35.2114 -1.0823 -4.64085 -0.195272 -1.16425 -4.74787 15.9429 -0.0408048 -0.127278 -4.27978 -0.232512 0.48788 -34.6373 
146.389 84.3979 -1.70788 -175.298 -35.1092 179.177 17.0769 13.3695 -14.3398 -1.78609 -7.32278 17.433 -2.12052 0.168721 11.9529 1.07984e-007 1.41006e-006 -36.6741 3.21428 -4.40038 3.58588 5.98219 -8.97688 7.01935 -0.0068039 8.23569e-005 0.217195 74.2686 -6.66888 -106.298 88.1292 66.6795 36.9876 7.10999 2.08958 10.0392 -4.95415e-022 -2.42657e-020 0 -60.2049 -10.6698 -44.9767 -16.3285 -31.2254 63.7765 -10.9594 -8.9282 10.7552 6.08723 41.2106 35.4428 -1.07827 -4.44149 -0.276938 -1.22501 -4.94273 16.1481 -0.0252724 -0.1263 -4.42976 -0.232628 0.488047 -34.452 
146.367 84.3885 -1.76798 -175.378 -35.1848 179.269 16.9897 13.4737 -14.4034 -1.82475 -7.45573 17.4798 -2.15287 0.165325 11.9125 1.07991e-007 1.41006e-006 -36.6392 3.22824 -4.44756 3.56553 6.01115 -9.07123 6.97408 -0.0068039 8.23569e-005 0.217195 74.1182 -6.68917 -106.286 88.6207 66.6878 37.4698 7.29493 2.22607 10.0513 -4.95415e-022 -2.42657e-020 0 -60.2824 -10.86 -44.7946 -16.3254 -31.2199 63.6602 -10.8786 -8.94608 10.7562 5.94091 41.1737 35.5587 -1.12537 -4.47252 -0.288353 -1.23731 -4.98275 16.1862 -0.0152753 -0.125698 -4.528 -0.232832 0.488154 -34.4545 
146.359 84.3869 -1.82821 -175.415 -35.1972 179.335 16.9923 13.3202 -14.397 -1.78873 -7.3218 17.4543 -2.11704 0.165871 11.9279 1.07982e-007 1.41006e-006 -36.6958 3.24861 -4.46589 3.54951 6.04736 -9.10694 6.94081 -0.0068039 8.23569e-005 0.217195 73.9075 -6.67166 -106.211 88.8074 66.6905 37.6996 7.39168 2.25892 10.0552 -4.95415e-022 -2.42657e-020 0 -60.3262 -10.9855 -44.638 -16.3563 -31.2712 63.8314 -10.9118 -9.06644 10.7703 5.75754 41.0382 35.5883 -1.14244 -4.5036 -0.263273 -1.22789 -4.96129 16.1349 -0.0125586 -0.125587 -4.56582 -0.233128 0.488198 -34.3317 
146.353 84.389 -1.88384 -175.445 -35.2085 179.406 16.982 13.2854 -14.4001 -1.77703 -7.2954 17.4149 -2.11161 0.163938 11.9445 1.07993e-007 1.41006e-006 -36.6956 3.27034 -4.4772 3.53224 6.08677 -9.12877 6.90516 -0.0068039 8.23569e-005 0.217195 73.6504 -6.63311 -106.17 88.8208 66.6909 37.7571 7.51213 2.32975 10.0622 -4.95415e-022 -2.42657e-020 0 -60.3326 -11.0844 -44.4711 -16.3908 -31.3273 63.7622 -10.8983 -9.06764 10.7694 5.5533 40.836 35.6368 -1.16318 -4.62849 -0.18399 -1.18556 -4.84893 15.9368 -0.0182013 -0.126296 -4.52826 -0.233519 0.488173 -34.3394 
146.356 84.3923 -1.93839 -175.456 -35.1808 179.467 17.0071 13.1406 -14.391 -1.7286 -7.11429 17.3802 -2.06054 0.162931 11.9467 1.07995e-007 1.41006e-006 -36.6383 3.29533 -4.48106 3.51572 6.13266 -9.13585 6.87128 -0.0068039 8.23569e-005 0.217195 73.3435 -6.53471 -106.243 88.7718 66.6892 37.8857 7.75177 2.42004 10.0731 -4.95415e-022 -2.42657e-020 0 -60.3216 -11.0997 -44.3158 -16.4213 -31.377 63.7424 -10.9184 -9.08214 10.7723 5.39637 40.6385 35.8886 -1.15756 -4.66569 -0.0906 -1.15099 -4.78649 15.6967 -0.0243722 -0.127262 -4.47564 -0.23401 0.488077 -34.3156 
146.369 84.3956 -1.9929 -175.457 -35.1151 179.521 17.0391 13.1511 -14.3382 -1.70048 -7.05013 17.2829 -2.04546 0.161426 11.9774 1.07991e-007 1.41006e-006 -36.7249 3.32223 -4.49147 3.50262 6.18185 -9.15609 6.84351 -0.0068039 8.23569e-005 0.217195 72.9281 -6.47185 -106.231 88.4256 66.6825 38.0373 8.27617 2.86111 10.1158 -4.95415e-022 -2.42657e-020 0 -60.3035 -11.0571 -44.3105 -16.4061 -31.3523 63.7609 -10.8889 -9.05383 10.7673 5.28817 40.3954 36.4078 -1.12921 -4.61378 -0.00649063 -1.12768 -4.77492 15.4581 -0.0309402 -0.12812 -4.40817 -0.234602 0.487904 -34.3716 
146.389 84.3989 -2.03758 -175.434 -35.0742 179.55 17.0869 13.1799 -14.315 -1.6894 -7.03611 17.2234 -2.04518 0.159685 12.0132 1.07992e-007 1.41006e-006 -36.7898 3.36094 -4.53288 3.5131 6.25246 -9.2397 6.86018 -0.0068039 8.23569e-005 0.217195 72.2188 -6.36043 -106.241 87.8323 66.6698 38.0624 8.78164 3.27957 10.1604 -4.95415e-022 -2.42657e-020 0 -60.3034 -10.9737 -44.4158 -16.3477 -31.2569 63.8047 -10.8149 -8.97014 10.7535 4.9956 40.0845 36.8584 -1.08506 -4.62617 0.0752033 -1.0983 -4.72452 15.2388 -0.0366371 -0.12884 -4.35255 -0.235301 0.487154 -34.2298 
146.418 84.4014 -2.04874 -175.397 -35.0413 179.577 17.1247 13.2552 -14.3722 -1.7018 -7.06741 17.2613 -2.05064 0.157112 11.9912 1.0799e-007 1.41006e-006 -36.6918 3.40393 -4.62198 3.54451 6.3291 -9.4193 6.91529 -0.0068039 8.23569e-005 0.217195 71.0436 -6.1077 -106.294 86.5987 66.6378 37.6038 9.57484 3.89052 10.234 -4.95415e-022 -2.42657e-020 0 -60.3054 -10.7737 -44.5746 -16.2614 -31.1151 63.7198 -10.9555 -8.97586 10.7651 4.60852 39.7225 37.2825 -1.04488 -4.67452 0.154358 -1.05834 -4.63906 14.9722 -0.04592 -0.129767 -4.25148 -0.236109 0.486166 -34.2832 
146.448 84.4022 -2.02699 -175.345 -34.9324 179.616 17.1629 13.3776 -14.486 -1.71826 -7.06322 17.3956 -2.04299 0.15407 11.9393 1.0799e-007 1.41006e-006 -36.6517 3.44629 -4.74671 3.60452 6.39231 -9.66836 7.02749 -0.0068039 8.23569e-005 0.217195 69.3602 -5.80692 -105.905 85.1276 66.5868 37.0909 10.5235 4.68716 10.3395 -4.95415e-022 -2.42657e-020 0 -60.2794 -10.4696 -44.8189 -16.146 -30.9248 63.5992 -10.9812 -8.93622 10.7633 4.30162 39.255 37.915 -1.00253 -4.66508 0.156495 -1.01868 -4.52791 14.7591 -0.0557751 -0.13076 -4.14395 -0.237031 0.485257 -34.3659 
